<?xml version="1.0"?>
<svg xmlns="http://www.w3.org/2000/svg" xmlns:xlink="http://www.w3.org/1999/xlink" xmlns:svgjs="http://svgjs.com/svgjs" version="1.1" width="512" height="512" x="0" y="0" viewBox="0 0 512 512" style="enable-background:new 0 0 512 512" xml:space="preserve" class=""><g><path xmlns="http://www.w3.org/2000/svg" d="M34.785,200c1.117,5.06,2.462,9.983,3.843,15.016,2.057,7.5,4.242,15.467,5.985,24.984H40a24.028,24.028,0,0,0-24,24V392a8,8,0,0,0,8,8H488a8,8,0,0,0,8-8V264a24.028,24.028,0,0,0-24-24h-4.613c1.743-9.517,3.928-17.485,5.985-24.984,1.381-5.033,2.726-9.956,3.843-15.016H488a8,8,0,0,0,0-16h-8.316c.2-2.575.316-5.233.316-8,0-15.593-6.767-31.7-19.054-45.352C452.863,121.667,440.356,112,432,112c-7.932,0-22.833,8.624-32,14.454C390.833,120.624,375.932,112,368,112c-8.356,0-20.863,9.667-28.946,18.648A81.107,81.107,0,0,0,328,146.213a81.107,81.107,0,0,0-11.054-15.565C308.863,121.667,296.356,112,288,112c-7.932,0-22.833,8.624-32,14.454C246.833,120.624,231.932,112,224,112c-8.356,0-20.863,9.667-28.946,18.648A81.107,81.107,0,0,0,184,146.213a81.107,81.107,0,0,0-11.054-15.565C164.863,121.667,152.356,112,144,112c-7.932,0-22.833,8.624-32,14.454C102.833,120.624,87.932,112,80,112c-8.356,0-20.863,9.667-28.946,18.648C38.767,144.3,32,160.407,32,176c0,2.767.112,5.425.316,8H16a8,8,0,0,0,0,16ZM96,176h32v32H96Zm-8,48h48a8,8,0,0,0,8-8V200h28.793c-.858,3.52-1.833,7.073-2.851,10.784C165.513,226.933,160,247.031,160,280c0,44.3-10.466,56-16,56-.559,0-1.868,0-3.646-4.151C138.367,327.215,136,317.234,136,296c0-9.647-6.392-24-24-24s-24,14.353-24,24c0,21.234-2.367,31.215-4.354,35.849C81.868,336,80.559,336,80,336c-5.534,0-16-11.7-16-56,0-32.969-5.513-53.067-9.942-69.216-1.018-3.711-1.993-7.264-2.851-10.784H80v16A8,8,0,0,0,88,224Zm144,0h48a8,8,0,0,0,8-8V200h28.793c-.858,3.52-1.833,7.073-2.851,10.784C309.513,226.933,304,247.031,304,280c0,44.3-10.466,56-16,56-.559,0-1.868,0-3.646-4.151C282.367,327.215,280,317.234,280,296c0-9.647-6.392-24-24-24s-24,14.353-24,24c0,21.234-2.367,31.215-4.354,35.849C225.868,336,224.559,336,224,336c-5.534,0-16-11.7-16-56,0-32.969-5.513-53.067-9.942-69.216-1.018-3.711-1.993-7.264-2.851-10.784H224v16A8,8,0,0,0,232,224Zm8-16V176h32v32Zm88,12.055c1.626,6.049,3.254,12.525,4.613,19.945h-9.226C324.746,232.58,326.374,226.1,328,220.055Zm-144,0c1.626,6.049,3.254,12.525,4.613,19.945h-9.226C180.746,232.58,182.374,226.1,184,220.055ZM472,256a8.009,8.009,0,0,1,8,8V384H32V264a8.009,8.009,0,0,1,8-8h6.864A240.238,240.238,0,0,1,48,280c0,25.794,3.367,44.933,10.007,56.885C65.312,350.036,74.922,352,80,352c5.665,0,13.447-2.4,18.354-13.849C102.153,329.285,104,315.5,104,296.1a12.052,12.052,0,0,1,1.313-4.815c.893-1.622,2.386-3.28,6.688-3.28s5.8,1.658,6.688,3.28A12.077,12.077,0,0,1,120,296c0,19.5,1.847,33.285,5.646,42.151C130.553,349.6,138.335,352,144,352c5.078,0,14.687-1.964,21.993-15.115C172.633,324.933,176,305.794,176,280a240.238,240.238,0,0,1,1.136-24h13.728A240.238,240.238,0,0,1,192,280c0,25.794,3.367,44.933,10.007,56.885C209.312,350.036,218.922,352,224,352c5.665,0,13.447-2.4,18.354-13.849C246.153,329.285,248,315.5,248,296.1a12.052,12.052,0,0,1,1.313-4.815c.893-1.622,2.386-3.28,6.688-3.28s5.8,1.658,6.688,3.28A12.077,12.077,0,0,1,264,296c0,19.5,1.847,33.285,5.646,42.151C274.553,349.6,282.335,352,288,352c5.078,0,14.688-1.964,21.993-15.115C316.633,324.933,320,305.794,320,280a240.238,240.238,0,0,1,1.136-24h13.728A240.238,240.238,0,0,1,336,280c0,25.794,3.367,44.933,10.007,56.885C353.312,350.036,362.922,352,368,352c5.665,0,13.447-2.4,18.354-13.849C390.153,329.285,392,315.5,392,296.1a12.052,12.052,0,0,1,1.313-4.815c.893-1.622,2.386-3.28,6.688-3.28s5.8,1.658,6.688,3.28A12.077,12.077,0,0,1,408,296c0,19.5,1.847,33.285,5.646,42.151C418.553,349.6,426.335,352,432,352c5.078,0,14.688-1.964,21.993-15.115C460.633,324.933,464,305.794,464,280a240.238,240.238,0,0,1,1.136-24Zm-14.058-45.216C453.513,226.933,448,247.031,448,280c0,44.3-10.466,56-16,56-.559,0-1.868,0-3.646-4.151C426.367,327.215,424,317.234,424,296c0-9.647-6.392-24-24-24s-24,14.353-24,24c0,21.234-2.367,31.215-4.354,35.849C369.868,336,368.559,336,368,336c-5.534,0-16-11.7-16-56,0-32.969-5.513-53.067-9.942-69.216-1.018-3.711-1.993-7.264-2.851-10.784H368v16a8,8,0,0,0,8,8h48a8,8,0,0,0,8-8V200h28.793C459.935,203.52,458.96,207.073,457.942,210.784ZM416,208H384V176h32Zm-47.813-79.971c3.762.566,16.324,7.264,27.376,14.628a8.007,8.007,0,0,0,8.874,0c11.107-7.4,23.737-14.128,27.354-14.634C437.589,129.541,464,149.147,464,176c0,2.771-.14,5.421-.383,8H432V168a8,8,0,0,0-8-8H376a8,8,0,0,0-8,8v16H336.383c-.243-2.579-.383-5.229-.383-8C336,149.182,362.344,129.592,368.187,128.029Zm-144,0c3.762.566,16.324,7.264,27.376,14.628a8.007,8.007,0,0,0,8.874,0c11.107-7.4,23.737-14.128,27.354-14.634C293.589,129.541,320,149.147,320,176c0,2.771-.14,5.421-.383,8H288V168a8,8,0,0,0-8-8H232a8,8,0,0,0-8,8v16H192.383c-.243-2.579-.383-5.229-.383-8C192,149.182,218.344,129.592,224.187,128.029ZM48,176c0-26.818,26.344-46.408,32.187-47.971,3.762.566,16.324,7.264,27.376,14.628a8.007,8.007,0,0,0,8.874,0c11.107-7.4,23.737-14.128,27.354-14.634C149.589,129.541,176,149.147,176,176c0,2.771-.14,5.421-.383,8H144V168a8,8,0,0,0-8-8H88a8,8,0,0,0-8,8v16H48.383C48.14,181.421,48,178.771,48,176Z" fill="#20c997" data-original="#000000" style="" class=""/></g></svg>
