<svg width="258" height="40" viewBox="0 0 258 40" fill="none" xmlns="http://www.w3.org/2000/svg">
<path d="M1.0341 13.3005C1.45427 13.3005 1.84121 13.0382 1.99576 12.6514C2.15476 12.2536 2.04182 11.7846 1.71658 11.5023C1.38657 11.2159 0.896526 11.1689 0.516727 11.3856C0.136721 11.6025 -0.0663768 12.049 0.0195412 12.4751C0.114983 12.9482 0.547057 13.3005 1.0341 13.3005V13.3005Z" fill="white"/>
<path d="M42.5216 13.2523C42.6514 11.4994 42.4496 9.84031 41.9203 8.31493C40.5803 4.45314 37.8199 1.60484 34.347 0.50028C29.5205 -1.03464 25.3928 1.28073 22.7077 3.15588C21.8534 3.75236 20.7054 3.75236 19.8511 3.15588C17.166 1.28073 13.0381 -1.03454 8.21178 0.50028C5.06432 1.50125 2.52389 3.89567 1.05829 7.2423C0.830548 7.76229 1.07102 8.36698 1.59544 8.59295C2.11955 8.81881 2.72948 8.58032 2.95732 8.06022C4.18194 5.26377 6.27248 3.27333 8.84407 2.45551C12.7121 1.22529 16.1947 3.1335 18.5192 4.73752C19.3201 6.16988 20.6154 7.23512 22.1926 7.75192C22.8687 7.97337 23.5634 8.08332 24.2553 8.08332C25.2649 8.08332 26.2682 7.84915 27.1962 7.38583C27.7069 7.13091 27.9125 6.5136 27.6554 6.00726C27.3984 5.50072 26.7759 5.29693 26.2654 5.55184C25.1951 6.086 23.9794 6.17501 22.8421 5.80234C22.6329 5.73376 22.4309 5.65112 22.2372 5.55523C22.8236 5.4308 23.3902 5.19067 23.8997 4.83484C26.2231 3.21234 29.7682 1.20065 33.7149 2.45561C36.5599 3.36039 38.8371 5.73962 39.9627 8.98307C40.3866 10.2049 40.5554 11.5424 40.4661 12.9659C40.1949 12.9494 39.9216 12.941 39.6463 12.941C32.2831 12.941 26.2926 18.9258 26.2926 26.2822C26.2926 29.905 27.7454 33.195 30.0995 35.6016C29.9032 36.0139 29.7091 36.4226 29.5183 36.8252C29.0752 37.7602 28.192 38.0102 27.5139 37.9324C26.8352 37.8544 26.0327 37.4109 25.8165 36.3998L23.3803 25.0088C23.3764 24.9909 23.3721 24.973 23.3673 24.9554C23.11 24.0057 22.271 23.3677 21.2794 23.3677C20.2879 23.3677 19.4487 24.0057 19.1915 24.9554C19.1867 24.973 19.1824 24.9909 19.1786 25.0088L16.7423 36.3998C16.526 37.4109 15.7237 37.8544 15.0448 37.9324C14.3661 38.0101 13.4834 37.7603 13.0404 36.8252C9.17988 28.6797 6.74587 23.855 5.80562 22.4851C4.46092 20.5257 3.45752 18.5497 2.82358 16.6118C2.64718 16.0725 2.06303 15.7771 1.51946 15.9521C0.97568 16.127 0.67786 16.7061 0.854254 17.2454C1.54886 19.3685 2.6389 21.5201 4.09405 23.6405C4.94818 24.885 7.45993 29.8777 11.1666 37.6987C11.8462 39.1327 13.2374 40 14.7958 40C14.9565 40 15.1191 39.9908 15.2827 39.972C17.0338 39.7711 18.4017 38.5361 18.7675 36.8258L21.1964 25.4688C21.2059 25.441 21.2217 25.4209 21.2793 25.4209C21.3369 25.4209 21.3526 25.441 21.3622 25.4689L23.7912 36.8257C24.1569 38.536 25.5248 39.771 27.2759 39.9719C29.0269 40.1727 30.6423 39.2804 31.3921 37.6986C31.4998 37.4713 31.6086 37.2421 31.7182 37.0115C33.937 38.6522 36.6802 39.6234 39.6464 39.6234C47.0096 39.6234 53.0001 33.6386 53.0001 26.2821C53.0001 19.9116 48.5077 14.5697 42.5216 13.2523V13.2523ZM39.6464 37.5702C33.4248 37.5702 28.3631 32.5064 28.3631 26.2821C28.3631 20.0579 33.4248 14.9941 39.6464 14.9941C45.8681 14.9941 50.9298 20.0579 50.9298 26.2821C50.9298 32.5064 45.8681 37.5702 39.6464 37.5702Z" fill="white"/>
<path d="M44.5935 22.7606H43.1764V21.3341C43.1764 20.0763 42.149 19.053 40.8863 19.053H38.4065C37.1437 19.053 36.1164 20.0763 36.1164 21.3341V22.7606H34.6993C33.4366 22.7606 32.4094 23.7839 32.4094 25.0417V27.5228C32.4094 28.7805 33.4367 29.8039 34.6993 29.8039H36.1164V31.2304C36.1164 32.4881 37.1437 33.5115 38.4065 33.5115H40.8863C42.149 33.5115 43.1764 32.4882 43.1764 31.2304V29.8039H44.5935C45.8562 29.8039 46.8835 28.7806 46.8835 27.5228V25.0417C46.8835 23.7839 45.8562 22.7606 44.5935 22.7606V22.7606ZM44.8132 27.5227C44.8132 27.6483 44.7146 27.7505 44.5935 27.7505H42.1412C41.5694 27.7505 41.106 28.2101 41.106 28.7771V31.2303C41.106 31.3559 41.0074 31.4581 40.8863 31.4581H38.4065C38.2853 31.4581 38.1868 31.3559 38.1868 31.2303V28.7771C38.1868 28.2101 37.7233 27.7505 37.1516 27.7505H34.6993C34.5782 27.7505 34.4797 27.6483 34.4797 27.5227V25.0416C34.4797 24.9159 34.5783 24.8138 34.6993 24.8138H37.1516C37.7233 24.8138 38.1868 24.3542 38.1868 23.7872V21.3341C38.1868 21.2084 38.2853 21.1063 38.4065 21.1063H40.8863C41.0074 21.1063 41.106 21.2084 41.106 21.3341V23.7873C41.106 24.3543 41.5694 24.8139 42.1412 24.8139H44.5935C44.7146 24.8139 44.8132 24.916 44.8132 25.0417V27.5227Z" fill="white"/>
<path d="M70.92 30.252C68.9973 30.252 67.3267 29.8413 65.908 29.02C64.508 28.1987 63.4253 27.0227 62.66 25.492C61.8947 23.9613 61.512 22.1693 61.512 20.116C61.512 18.0627 61.8853 16.28 62.632 14.768C63.3973 13.2373 64.4893 12.0613 65.908 11.24C67.3267 10.4187 68.9973 10.008 70.92 10.008C72.8427 10.008 74.504 10.4187 75.904 11.24C77.3227 12.0613 78.4053 13.2373 79.152 14.768C79.9173 16.28 80.3 18.0627 80.3 20.116C80.3 22.1693 79.9173 23.9613 79.152 25.492C78.3867 27.0227 77.2947 28.1987 75.876 29.02C74.476 29.8413 72.824 30.252 70.92 30.252ZM70.92 27.368C72.7307 27.368 74.14 26.7427 75.148 25.492C76.1747 24.2413 76.688 22.4493 76.688 20.116C76.688 17.7827 76.1747 16 75.148 14.768C74.14 13.5173 72.7307 12.892 70.92 12.892C69.0907 12.892 67.6627 13.5173 66.636 14.768C65.628 16 65.124 17.7827 65.124 20.116C65.124 22.4493 65.628 24.2413 66.636 25.492C67.6627 26.7427 69.0907 27.368 70.92 27.368ZM85.6843 30C85.143 30 84.7136 29.8507 84.3963 29.552C84.0976 29.2533 83.9483 28.8333 83.9483 28.292V11.968C83.9483 11.4267 84.0976 11.0067 84.3963 10.708C84.7136 10.4093 85.143 10.26 85.6843 10.26H91.2283C94.4576 10.26 96.959 11.128 98.7323 12.864C100.524 14.5813 101.42 16.9987 101.42 20.116C101.42 23.252 100.524 25.688 98.7323 27.424C96.959 29.1413 94.4576 30 91.2283 30H85.6843ZM91.0043 27.06C95.5403 27.06 97.8083 24.7453 97.8083 20.116C97.8083 15.5053 95.5403 13.2 91.0043 13.2H87.5603V27.06H91.0043ZM113.85 30.252C111.927 30.252 110.256 29.8413 108.838 29.02C107.438 28.1987 106.355 27.0227 105.59 25.492C104.824 23.9613 104.442 22.1693 104.442 20.116C104.442 18.0627 104.815 16.28 105.562 14.768C106.327 13.2373 107.419 12.0613 108.838 11.24C110.256 10.4187 111.927 10.008 113.85 10.008C115.772 10.008 117.434 10.4187 118.834 11.24C120.252 12.0613 121.335 13.2373 122.082 14.768C122.847 16.28 123.23 18.0627 123.23 20.116C123.23 22.1693 122.847 23.9613 122.082 25.492C121.316 27.0227 120.224 28.1987 118.806 29.02C117.406 29.8413 115.754 30.252 113.85 30.252ZM113.85 27.368C115.66 27.368 117.07 26.7427 118.078 25.492C119.104 24.2413 119.618 22.4493 119.618 20.116C119.618 17.7827 119.104 16 118.078 14.768C117.07 13.5173 115.66 12.892 113.85 12.892C112.02 12.892 110.592 13.5173 109.566 14.768C108.558 16 108.054 17.7827 108.054 20.116C108.054 22.4493 108.558 24.2413 109.566 25.492C110.592 26.7427 112.02 27.368 113.85 27.368ZM141.83 10.12C142.353 10.12 142.763 10.288 143.062 10.624C143.379 10.9413 143.538 11.3707 143.538 11.912V28.348C143.538 28.8893 143.379 29.328 143.062 29.664C142.745 30 142.334 30.168 141.83 30.168C141.233 30.168 140.775 29.9533 140.458 29.524L130.238 16.224V28.348C130.238 28.8893 130.089 29.328 129.79 29.664C129.491 30 129.081 30.168 128.558 30.168C128.035 30.168 127.625 30 127.326 29.664C127.027 29.328 126.878 28.8893 126.878 28.348V11.912C126.878 11.3707 127.037 10.9413 127.354 10.624C127.671 10.288 128.091 10.12 128.614 10.12C129.193 10.12 129.641 10.3347 129.958 10.764L140.15 24.008V11.912C140.15 11.3707 140.299 10.9413 140.598 10.624C140.915 10.288 141.326 10.12 141.83 10.12ZM154.264 30.14C153.704 30.14 153.256 29.9813 152.92 29.664C152.603 29.328 152.444 28.8893 152.444 28.348V13.228H147.348C146.228 13.228 145.668 12.7333 145.668 11.744C145.668 10.7547 146.228 10.26 147.348 10.26H161.152C162.272 10.26 162.832 10.7547 162.832 11.744C162.832 12.7333 162.272 13.228 161.152 13.228H156.056V28.348C156.056 28.8893 155.888 29.328 155.552 29.664C155.235 29.9813 154.805 30.14 154.264 30.14ZM172.584 30.252C170.661 30.252 168.991 29.8413 167.572 29.02C166.172 28.1987 165.089 27.0227 164.324 25.492C163.559 23.9613 163.176 22.1693 163.176 20.116C163.176 18.0627 163.549 16.28 164.296 14.768C165.061 13.2373 166.153 12.0613 167.572 11.24C168.991 10.4187 170.661 10.008 172.584 10.008C174.507 10.008 176.168 10.4187 177.568 11.24C178.987 12.0613 180.069 13.2373 180.816 14.768C181.581 16.28 181.964 18.0627 181.964 20.116C181.964 22.1693 181.581 23.9613 180.816 25.492C180.051 27.0227 178.959 28.1987 177.54 29.02C176.14 29.8413 174.488 30.252 172.584 30.252ZM172.584 27.368C174.395 27.368 175.804 26.7427 176.812 25.492C177.839 24.2413 178.352 22.4493 178.352 20.116C178.352 17.7827 177.839 16 176.812 14.768C175.804 13.5173 174.395 12.892 172.584 12.892C170.755 12.892 169.327 13.5173 168.3 14.768C167.292 16 166.788 17.7827 166.788 20.116C166.788 22.4493 167.292 24.2413 168.3 25.492C169.327 26.7427 170.755 27.368 172.584 27.368ZM187.32 30C186.779 30 186.359 29.8507 186.06 29.552C185.762 29.2533 185.612 28.8427 185.612 28.32V11.912C185.612 11.3707 185.771 10.9413 186.088 10.624C186.424 10.288 186.863 10.12 187.404 10.12C187.964 10.12 188.403 10.288 188.72 10.624C189.056 10.9413 189.224 11.3707 189.224 11.912V27.032H197.092C198.212 27.032 198.772 27.5267 198.772 28.516C198.772 29.5053 198.212 30 197.092 30H187.32ZM208.869 30.252C206.947 30.252 205.276 29.8413 203.857 29.02C202.457 28.1987 201.375 27.0227 200.609 25.492C199.844 23.9613 199.461 22.1693 199.461 20.116C199.461 18.0627 199.835 16.28 200.581 14.768C201.347 13.2373 202.439 12.0613 203.857 11.24C205.276 10.4187 206.947 10.008 208.869 10.008C210.792 10.008 212.453 10.4187 213.853 11.24C215.272 12.0613 216.355 13.2373 217.101 14.768C217.867 16.28 218.249 18.0627 218.249 20.116C218.249 22.1693 217.867 23.9613 217.101 25.492C216.336 27.0227 215.244 28.1987 213.825 29.02C212.425 29.8413 210.773 30.252 208.869 30.252ZM208.869 27.368C210.68 27.368 212.089 26.7427 213.097 25.492C214.124 24.2413 214.637 22.4493 214.637 20.116C214.637 17.7827 214.124 16 213.097 14.768C212.089 13.5173 210.68 12.892 208.869 12.892C207.04 12.892 205.612 13.5173 204.585 14.768C203.577 16 203.073 17.7827 203.073 20.116C203.073 22.4493 203.577 24.2413 204.585 25.492C205.612 26.7427 207.04 27.368 208.869 27.368ZM236.934 19.332C237.363 19.332 237.708 19.4627 237.97 19.724C238.231 19.9667 238.362 20.2933 238.362 20.704V26.724C238.362 27.5827 238.25 28.1893 238.026 28.544C237.802 28.8987 237.344 29.188 236.654 29.412C235.907 29.6733 235.039 29.8787 234.05 30.028C233.06 30.1773 232.108 30.252 231.194 30.252C229.159 30.252 227.395 29.8507 225.902 29.048C224.408 28.2453 223.26 27.088 222.458 25.576C221.674 24.0453 221.282 22.2253 221.282 20.116C221.282 18.044 221.674 16.252 222.458 14.74C223.26 13.2093 224.39 12.0427 225.846 11.24C227.302 10.4187 229.019 10.008 230.998 10.008C233.63 10.008 235.786 10.7173 237.466 12.136C237.69 12.3413 237.848 12.5467 237.942 12.752C238.054 12.9573 238.11 13.2 238.11 13.48C238.11 13.8907 237.998 14.236 237.774 14.516C237.55 14.796 237.279 14.936 236.962 14.936C236.756 14.936 236.57 14.908 236.402 14.852C236.234 14.7773 236.038 14.6653 235.814 14.516C234.992 13.9373 234.227 13.536 233.518 13.312C232.808 13.0693 232.006 12.948 231.11 12.948C229.075 12.948 227.535 13.5547 226.49 14.768C225.463 15.9627 224.95 17.7453 224.95 20.116C224.95 24.9693 227.078 27.396 231.334 27.396C232.603 27.396 233.872 27.2187 235.142 26.864V21.908H231.978C231.53 21.908 231.175 21.796 230.914 21.572C230.671 21.348 230.55 21.0307 230.55 20.62C230.55 20.2093 230.671 19.892 230.914 19.668C231.175 19.444 231.53 19.332 231.978 19.332H236.934ZM254.343 10.736C254.679 10.3253 255.08 10.12 255.547 10.12C255.976 10.12 256.359 10.288 256.695 10.624C257.031 10.9413 257.199 11.324 257.199 11.772C257.199 12.1453 257.059 12.5 256.779 12.836L250.423 20.592V28.348C250.423 28.9267 250.255 29.3747 249.919 29.692C249.583 30.0093 249.153 30.168 248.631 30.168C248.089 30.168 247.651 30.0093 247.315 29.692C246.979 29.3747 246.811 28.9267 246.811 28.348V20.592L240.455 12.836C240.175 12.5 240.035 12.1453 240.035 11.772C240.035 11.324 240.203 10.9413 240.539 10.624C240.875 10.288 241.257 10.12 241.687 10.12C242.153 10.12 242.555 10.3253 242.891 10.736L248.631 17.848L254.343 10.736Z" fill="white"/>
</svg>
